<?xml version="1.0" encoding="utf-8"?>
<!-- Generator: Adobe Illustrator 25.4.1, SVG Export Plug-In . SVG Version: 6.00 Build 0)  -->
<svg version="1.0" id="katman_1" xmlns="http://www.w3.org/2000/svg" xmlns:xlink="http://www.w3.org/1999/xlink" x="0px" y="0px"
	 viewBox="0 0 1700 1200" style="enable-background:new 0 0 1700 1200;" xml:space="preserve">
<style type="text/css">
	.st0{fill:#F49B33;}
	.st1{fill:#FFFFFF;}
</style>
<circle class="st0" cx="850" cy="600.5" r="521.5"/>
<path class="st1" d="M1042.1,494c-5.1-65.4-61.2-88.3-132.2-95.8l1.6-90.6l-55.1-0.9l-1.6,88.2c-14.5-0.3-29.3-0.2-44.1-0.2
	l1.6-88.8l-55.1-1l-1.6,90.6c-11.9,0-23.7,0.1-35.1-0.2l0-0.3l-76.1-1.3l-1,58.9c0,0,40.8-0.1,40.1,0.7
	c22.3,0.4,29.4,13.5,31.3,24.7L713,581.2c1.5,0,3.5,0.1,5.8,0.5l-5.8-0.1l-2.5,144.6c-1.1,7-5.4,18.1-21.1,17.9
	c0.7,0.6-40.1-0.7-40.1-0.7L637.2,809l71.8,1.3c13.3,0.3,26.5,0.7,39.4,1l-1.6,91.6l55.1,0.9l1.6-90.6c15.1,0.5,29.8,0.9,44.1,1.2
	l-1.6,90.2l55.1,0.9l1.6-91.4c92.8-3.7,158.1-25.9,167.7-112.9c7.7-70-24.7-101.9-77.1-115.4C1025.5,570.2,1046,541.9,1042.1,494z
	 M961.5,688.6c-1.1,68.5-118.3,58.6-155.7,58l2.2-121.4C845.4,625.8,962.8,617.1,961.5,688.6z M938.9,516.8
	c-1.1,62.3-98.8,53.3-129.9,52.8l1.9-110.1C842,460,940,451.8,938.9,516.8z"/>
</svg>
