<?xml version="1.0" encoding="utf-8"?>
<!-- Generator: Adobe Illustrator 27.8.0, SVG Export Plug-In . SVG Version: 6.00 Build 0)  -->
<svg version="1.0" id="katman_1" xmlns="http://www.w3.org/2000/svg" xmlns:xlink="http://www.w3.org/1999/xlink" x="0px" y="0px"
	 viewBox="0 0 130.01 129.75" style="enable-background:new 0 0 130.01 129.75;" xml:space="preserve">
<style type="text/css">
	.st0{fill:#83BC2C;}
</style>
<g>
	<path class="st0" d="M121.88,38.26l-2.99,3.05l-1.98,2.02l-1.16,1.18l0.54,1.57c2.05,5.98,3.11,12.31,3.11,18.79
		c0,31.44-24.97,56.9-55.74,56.9c-30.77,0-55.74-25.46-55.74-56.9c0-31.44,24.97-56.9,55.74-56.9c9.59,0,18.83,2.48,27.03,7.13
		l0.62,0.35h0.71h0h1.13l0.79-0.81l1.86-1.9l2.42-2.47l-2.98-1.74C85.7,2.97,74.89,0,63.66,0C28.49,0,0,29.06,0,64.87
		c0,35.82,28.49,64.87,63.66,64.87s63.66-29.06,63.66-64.87c0-7.81-1.36-15.44-3.97-22.61L121.88,38.26z"/>
	<polygon class="st0" points="49.05,80.12 31.69,62.42 28.9,59.57 23.32,65.26 26.11,68.11 46.26,88.66 49.05,91.51 54.63,85.82 
		55,85.44 127.22,11.79 130.01,8.94 124.43,3.25 121.63,6.09 49.42,79.75 	"/>
</g>
</svg>
