<svg version="1.1" id="Layer_1" xmlns="http://www.w3.org/2000/svg" xmlns:xlink="http://www.w3.org/1999/xlink" x="0px" y="0px"
	 width="100%" viewBox="0 0 256 256" enable-background="new 0 0 256 256" xml:space="preserve">
<path fill="#2A2C33" opacity="1.000000" stroke="none" 
	d="
M257.000000,106.000000 
	C257.000000,121.020897 257.000000,136.041794 256.636841,151.613861 
	C255.825424,153.171478 255.190903,154.136490 254.956360,155.190491 
	C250.103867,176.998123 240.789246,196.650635 225.980347,213.422501 
	C207.033554,234.880737 183.437332,248.677353 155.457138,254.942001 
	C154.213501,255.220428 153.148300,256.295807 152.000000,257.000000 
	C136.979111,257.000000 121.958214,257.000000 106.380669,256.638489 
	C104.818062,255.827377 103.853874,255.186630 102.799995,254.956329 
	C81.125374,250.220078 61.634956,240.871048 44.947994,226.301971 
	C23.399429,207.488342 9.515460,183.910461 3.160532,155.946533 
	C2.840889,154.539993 1.738127,153.311432 1.000000,152.000000 
	C1.000000,136.979111 1.000000,121.958214 1.362771,106.384537 
	C2.172569,104.824631 2.807887,103.858742 3.038862,102.804291 
	C7.824338,80.957588 17.243210,61.341087 32.038109,44.572781 
	C51.090111,22.979540 74.820709,9.094100 103.041382,2.981791 
	C104.120064,2.748160 105.017891,1.679531 106.000000,0.999999 
	C121.020897,1.000000 136.041794,1.000000 151.615448,1.362769 
	C153.175034,2.172536 154.140610,2.807312 155.194748,3.038852 
	C177.034424,7.835872 196.645111,17.282589 213.418716,32.041725 
	C235.038055,51.064610 248.892822,74.821724 255.014359,103.036072 
	C255.248825,104.116776 256.319153,105.016136 257.000000,106.000000 
M190.822266,96.264671 
	C194.442459,96.258766 198.118942,96.622086 201.657745,96.082466 
	C203.290207,95.833542 205.748901,93.898567 205.843948,92.584229 
	C205.947891,91.147011 204.037888,88.696068 202.504089,88.181229 
	C198.807587,86.940468 194.818420,86.571655 190.407776,85.396698 
	C186.606003,84.664520 182.804230,83.932343 178.223038,82.981941 
	C163.816193,79.982224 149.409363,76.982506 134.882874,73.112686 
	C134.831558,71.060799 134.780228,69.008904 135.130127,66.370483 
	C136.171982,64.900261 137.501938,63.554161 138.199310,61.935520 
	C139.982025,57.797695 138.868530,54.060211 135.652878,51.113873 
	C132.231796,47.979286 128.204880,47.577080 124.161011,49.803894 
	C120.298355,51.930931 118.294304,55.497715 119.250038,59.766003 
	C119.825424,62.335644 121.883163,64.573364 123.192253,67.837112 
	C123.130630,69.887604 123.069008,71.938103 122.234749,74.157356 
	C107.824226,77.184036 93.413704,80.210716 78.142075,83.192551 
	C74.439735,84.103401 70.737396,85.014259 66.189575,85.910698 
	C62.930027,86.560577 59.681992,87.277466 56.407433,87.839966 
	C53.588482,88.324196 51.213970,89.742378 52.124405,92.656708 
	C52.611362,94.215477 55.227158,95.795425 57.083702,96.088219 
	C60.318745,96.598419 63.709637,96.120415 67.440285,96.335190 
	C67.698158,96.537094 67.961182,96.732040 68.066071,97.678375 
	C61.138187,116.797478 54.210300,135.916580 47.105576,155.418961 
	C47.105576,155.418961 47.180527,155.834366 47.033787,156.685364 
	C46.705643,166.312637 53.323833,177.058701 66.536049,176.237595 
	C71.670868,175.918503 76.830688,176.001831 82.820808,176.076508 
	C94.351006,175.767776 101.191277,168.150574 100.968048,155.167343 
	C93.926598,135.773743 86.885147,116.380135 80.212250,96.659416 
	C80.452461,96.434036 80.708122,96.227814 81.907494,96.201202 
	C95.515388,96.191673 109.123283,96.182144 122.966309,97.060463 
	C123.016792,123.983131 123.070251,150.905807 123.100014,177.828491 
	C123.100731,178.476532 122.837112,179.124863 121.822586,179.694092 
	C109.658058,179.601837 109.291603,179.869049 108.131149,189.118103 
	C103.479126,189.380432 98.825783,189.621338 94.175400,189.910110 
	C87.206612,190.342880 84.618546,193.977051 86.088417,201.372589 
	C114.767433,201.372589 143.470322,201.372589 172.150650,201.372589 
	C172.682129,192.833786 170.628036,190.350845 162.891800,189.855331 
	C158.242615,189.557541 153.591812,189.285339 148.888611,188.166916 
	C148.732819,180.745682 147.672256,179.698761 140.221436,179.676926 
	C138.582565,179.672134 136.943512,179.739594 135.050873,178.894440 
	C134.979691,153.134308 134.899506,127.374184 134.856583,101.614006 
	C134.853561,99.800285 135.125626,97.986099 136.171600,96.231110 
	C149.787582,96.166435 163.403564,96.101753 177.387421,96.323944 
	C177.628738,96.520676 177.860382,96.728188 177.926819,97.677414 
	C175.751129,103.547775 173.522995,109.399338 171.410370,115.292313 
	C166.581421,128.762360 161.808960,142.252655 156.788742,156.605362 
	C157.671890,170.247742 163.928238,176.153641 177.592316,176.140610 
	C182.386154,176.136032 187.179840,175.964966 192.814148,176.037231 
	C204.158844,175.676483 211.073563,167.887390 210.703613,155.101242 
	C203.617599,135.740433 196.531586,116.379616 189.799042,96.720123 
	C189.799042,96.720123 189.896088,96.266930 190.822266,96.264671 
z"/>
<path fill="#000000" opacity="1.000000" stroke="none" 
	d="
M257.000000,105.531342 
	C256.319153,105.016136 255.248825,104.116776 255.014359,103.036072 
	C248.892822,74.821724 235.038055,51.064610 213.418716,32.041725 
	C196.645111,17.282589 177.034424,7.835872 155.194748,3.038852 
	C154.140610,2.807312 153.175034,2.172536 152.084106,1.362769 
	C186.926941,1.000000 221.853882,1.000000 257.000000,1.000000 
	C257.000000,35.687252 257.000000,70.374969 257.000000,105.531342 
z"/>
<path fill="#000000" opacity="1.000000" stroke="none" 
	d="
M1.000000,152.468658 
	C1.738127,153.311432 2.840889,154.539993 3.160532,155.946533 
	C9.515460,183.910461 23.399429,207.488342 44.947994,226.301971 
	C61.634956,240.871048 81.125374,250.220078 102.799995,254.956329 
	C103.853874,255.186630 104.818062,255.827377 105.912010,256.638489 
	C71.073059,257.000000 36.146114,257.000000 1.000000,257.000000 
	C1.000000,222.312744 1.000000,187.625031 1.000000,152.468658 
z"/>
<path fill="#000000" opacity="1.000000" stroke="none" 
	d="
M105.531342,0.999999 
	C105.017891,1.679531 104.120064,2.748160 103.041382,2.981791 
	C74.820709,9.094100 51.090111,22.979540 32.038109,44.572781 
	C17.243210,61.341087 7.824338,80.957588 3.038862,102.804291 
	C2.807887,103.858742 2.172569,104.824631 1.362771,105.915878 
	C1.000000,71.073059 1.000000,36.146111 1.000000,1.000000 
	C35.687252,1.000000 70.374969,1.000000 105.531342,0.999999 
z"/>
<path fill="#000000" opacity="1.000000" stroke="none" 
	d="
M152.468658,257.000000 
	C153.148300,256.295807 154.213501,255.220428 155.457138,254.942001 
	C183.437332,248.677353 207.033554,234.880737 225.980347,213.422501 
	C240.789246,196.650635 250.103867,176.998123 254.956360,155.190491 
	C255.190903,154.136490 255.825424,153.171478 256.636841,152.082520 
	C257.000000,186.926941 257.000000,221.853882 257.000000,257.000000 
	C222.312744,257.000000 187.625031,257.000000 152.468658,257.000000 
z"/>
<path fill="#F5B763" opacity="1.000000" stroke="none" 
	d="
M122.731178,96.172615 
	C109.123283,96.182144 95.515388,96.191673 81.515877,95.731537 
	C83.270004,90.750496 80.907631,87.034332 79.003181,83.237396 
	C93.413704,80.210716 107.824226,77.184036 123.024254,74.053017 
	C127.543343,73.960045 131.272934,73.971420 135.002518,73.982788 
	C149.409363,76.982506 163.816193,79.982224 178.523682,83.430695 
	C176.157913,87.625481 175.211838,91.626892 177.019547,96.037079 
	C163.403564,96.101753 149.787582,96.166435 135.241257,96.162399 
	C130.451004,96.119995 126.591087,96.146309 122.731178,96.172615 
z"/>
<path fill="#E29C4D" opacity="1.000000" stroke="none" 
	d="
M148.941727,189.001633 
	C153.591812,189.285339 158.242615,189.557541 162.891800,189.855331 
	C170.628036,190.350845 172.682129,192.833786 172.150650,201.372589 
	C143.470322,201.372589 114.767433,201.372589 86.088417,201.372589 
	C84.618546,193.977051 87.206612,190.342880 94.175400,189.910110 
	C98.825783,189.621338 103.479126,189.380432 109.059265,189.058075 
	C122.972168,188.999252 135.956955,189.000443 148.941727,189.001633 
z"/>
<path fill="#E19C4D" opacity="1.000000" stroke="none" 
	d="
M122.848740,96.616539 
	C126.591087,96.146309 130.451004,96.119995 134.790344,96.132912 
	C135.125626,97.986099 134.853561,99.800285 134.856583,101.614006 
	C134.899506,127.374184 134.979691,153.134308 134.695953,179.382904 
	C130.459610,179.838608 126.578194,179.805832 122.696785,179.773056 
	C122.837112,179.124863 123.100731,178.476532 123.100014,177.828491 
	C123.070251,150.905807 123.016792,123.983131 122.848740,96.616539 
z"/>
<path fill="#F5B763" opacity="1.000000" stroke="none" 
	d="
M191.973587,175.869904 
	C187.179840,175.964966 182.386154,176.136032 177.592316,176.140610 
	C163.928238,176.153641 157.671890,170.247742 157.313568,156.200638 
	C159.483719,155.724045 161.129044,155.652176 163.261887,155.649811 
	C177.165863,155.818802 190.582352,155.918243 204.000519,156.432144 
	C203.846771,165.624680 199.601990,171.817032 191.973587,175.869904 
z"/>
<path fill="#F5B763" opacity="1.000000" stroke="none" 
	d="
M81.979126,175.901840 
	C76.830688,176.001831 71.670868,175.918503 66.536049,176.237595 
	C53.323833,177.058701 46.705643,166.312637 47.290817,156.214981 
	C47.547844,155.744598 47.889206,155.581696 48.239807,155.640259 
	C49.062973,155.679230 49.535545,155.659622 50.252144,155.690964 
	C50.496174,155.741928 50.992142,155.690948 51.325752,155.732895 
	C52.104988,155.733383 52.550617,155.691940 53.463264,155.731049 
	C67.285629,155.889648 80.640976,155.967667 94.001724,156.468445 
	C94.464897,166.054413 89.371414,171.705353 81.979126,175.901840 
z"/>
<path fill="#DDDCDE" opacity="1.000000" stroke="none" 
	d="
M79.843697,96.986534 
	C86.885147,116.380135 93.926598,135.773743 100.520752,155.566101 
	C98.385811,155.883377 96.698151,155.801910 94.971161,155.367386 
	C88.163383,136.472870 81.394943,117.931404 74.896057,99.219582 
	C76.724976,98.361664 78.284340,97.674103 79.843697,96.986534 
z"/>
<path fill="#DEDDDE" opacity="1.000000" stroke="none" 
	d="
M189.445572,97.018799 
	C196.531586,116.379616 203.617599,135.740433 210.315994,155.468201 
	C208.261230,155.781479 206.594086,155.727768 204.818527,155.351410 
	C197.782715,136.374802 190.855331,117.720848 184.254379,98.995743 
	C186.202393,98.289330 187.823990,97.654060 189.445572,97.018799 
z"/>
<path fill="#DEDDDE" opacity="1.000000" stroke="none" 
	d="
M162.774384,155.580292 
	C161.129044,155.652176 159.483719,155.724045 157.425964,155.765320 
	C161.808960,142.252655 166.581421,128.762360 171.410370,115.292313 
	C173.522995,109.399338 175.751129,103.547775 178.344299,97.376762 
	C180.237411,97.735497 181.713058,98.394882 183.116150,99.426132 
	C176.287201,118.392097 169.530792,136.986206 162.774384,155.580292 
z"/>
<path fill="#DDDCDE" opacity="1.000000" stroke="none" 
	d="
M50.008110,155.639999 
	C49.535545,155.659622 49.062973,155.679230 48.146740,155.541687 
	C47.572865,155.256165 47.432644,155.139893 47.282417,155.035690 
	C54.210300,135.916580 61.138187,116.797478 68.455727,97.401039 
	C70.381470,97.887039 71.917557,98.650375 73.316269,99.831947 
	C66.451340,118.716949 59.723793,137.183701 52.996246,155.650482 
	C52.550617,155.691940 52.104988,155.733383 51.286148,155.581726 
	C50.611332,155.472427 50.309723,155.556213 50.008110,155.639999 
z"/>
<path fill="#F5B763" opacity="1.000000" stroke="none" 
	d="
M122.259689,179.733582 
	C126.578194,179.805832 130.459610,179.838608 134.822784,179.822571 
	C136.943512,179.739594 138.582565,179.672134 140.221436,179.676926 
	C147.672256,179.698761 148.732819,180.745682 148.915161,188.584274 
	C135.956955,189.000443 122.972168,188.999252 109.522850,188.999817 
	C109.291603,179.869049 109.658058,179.601837 122.259689,179.733582 
z"/>
<path fill="#F2B562" opacity="1.000000" stroke="none" 
	d="
M123.274750,66.960243 
	C121.883163,64.573364 119.825424,62.335644 119.250038,59.766003 
	C118.294304,55.497715 120.298355,51.930931 124.161011,49.803894 
	C128.204880,47.577080 132.231796,47.979286 135.652878,51.113873 
	C138.868530,54.060211 139.982025,57.797695 138.199310,61.935520 
	C137.501938,63.554161 136.171982,64.900261 134.554352,66.759529 
	C130.410629,67.085800 126.842690,67.023026 123.274750,66.960243 
z"/>
<path fill="#E6A051" opacity="1.000000" stroke="none" 
	d="
M73.453651,99.413712 
	C71.917557,98.650375 70.381470,97.887039 68.537369,97.021866 
	C67.961182,96.732040 67.698158,96.537094 67.210754,95.800278 
	C66.999161,92.151947 67.017105,89.038528 67.035057,85.925110 
	C70.737396,85.014259 74.439735,84.103401 78.572632,83.214973 
	C80.907631,87.034332 83.270004,90.750496 81.051743,95.651314 
	C80.708122,96.227814 80.452461,96.434036 80.027969,96.822975 
	C78.284340,97.674103 76.724976,98.361664 74.706268,99.302765 
	C73.960144,99.633224 73.695717,99.585693 73.453651,99.413712 
M70.473572,90.613831 
	C71.843040,91.972931 73.212509,93.332039 74.581970,94.691139 
	C75.658203,93.583664 77.486267,92.548134 77.601051,91.348663 
	C77.717865,90.128029 76.122375,87.648987 75.321190,87.667313 
	C73.746864,87.703323 72.203415,89.088600 70.473572,90.613831 
z"/>
<path fill="#E7A151" opacity="1.000000" stroke="none" 
	d="
M183.188690,99.054268 
	C181.713058,98.394882 180.237411,97.735497 178.422073,97.011292 
	C177.860382,96.728188 177.628738,96.520676 177.203491,96.180511 
	C175.211838,91.626892 176.157913,87.625481 178.913391,83.539810 
	C182.804230,83.932343 186.606003,84.664520 190.707397,86.018661 
	C190.636703,89.849396 190.266388,93.058167 189.896088,96.266930 
	C189.896088,96.266930 189.799042,96.720123 189.622314,96.869461 
	C187.823990,97.654060 186.202393,98.289330 184.069061,99.019409 
	C183.557297,99.114220 183.188690,99.054268 183.188690,99.054268 
M184.307465,87.184052 
	C182.957214,88.685745 181.432449,90.083992 180.422729,91.787529 
	C180.247604,92.083000 182.159592,94.322823 183.273132,94.478241 
	C184.413879,94.637466 186.847382,93.271439 186.811035,92.692520 
	C186.697098,90.877098 185.686310,89.117966 184.307465,87.184052 
z"/>
<path fill="#E59E4D" opacity="1.000000" stroke="none" 
	d="
M204.926941,155.674057 
	C206.594086,155.727768 208.261230,155.781479 210.346420,155.826141 
	C211.073563,167.887390 204.158844,175.676483 192.393860,175.953568 
	C199.601990,171.817032 203.846771,165.624680 204.229980,156.339355 
	C204.457764,155.832108 204.926941,155.674057 204.926941,155.674057 
z"/>
<path fill="#F1B462" opacity="1.000000" stroke="none" 
	d="
M190.359161,96.265800 
	C190.266388,93.058167 190.636703,89.849396 190.977142,86.245911 
	C194.818420,86.571655 198.807587,86.940468 202.504089,88.181229 
	C204.037888,88.696068 205.947891,91.147011 205.843948,92.584229 
	C205.748901,93.898567 203.290207,95.833542 201.657745,96.082466 
	C198.118942,96.622086 194.442459,96.258766 190.359161,96.265800 
z"/>
<path fill="#E79F4E" opacity="1.000000" stroke="none" 
	d="
M95.010498,155.720428 
	C96.698151,155.801910 98.385811,155.883377 100.495804,155.944244 
	C101.191277,168.150574 94.351006,175.767776 82.399963,175.989166 
	C89.371414,171.705353 94.464897,166.054413 94.253693,156.382263 
	C94.670341,155.822372 94.840416,155.771408 95.010498,155.720428 
z"/>
<path fill="#F2B562" opacity="1.000000" stroke="none" 
	d="
M66.612320,85.917908 
	C67.017105,89.038528 66.999161,92.151947 67.008209,95.660995 
	C63.709637,96.120415 60.318745,96.598419 57.083702,96.088219 
	C55.227158,95.795425 52.611362,94.215477 52.124405,92.656708 
	C51.213970,89.742378 53.588482,88.324196 56.407433,87.839966 
	C59.681992,87.277466 62.930027,86.560577 66.612320,85.917908 
z"/>
<path fill="#E19C4D" opacity="1.000000" stroke="none" 
	d="
M123.233505,67.398682 
	C126.842690,67.023026 130.410629,67.085800 134.353729,67.052795 
	C134.780228,69.008904 134.831558,71.060799 134.942688,73.547737 
	C131.272934,73.971420 127.543343,73.960045 123.410568,73.968636 
	C123.069008,71.938103 123.130630,69.887604 123.233505,67.398682 
z"/>
<path fill="#DEDDDE" opacity="1.000000" stroke="none" 
	d="
M47.193996,155.227325 
	C47.432644,155.139893 47.572865,155.256165 47.796143,155.483109 
	C47.889206,155.581696 47.547844,155.744598 47.364185,155.789490 
	C47.180527,155.834366 47.105576,155.418961 47.193996,155.227325 
z"/>
<path fill="#2E3036" opacity="1.000000" stroke="none" 
	d="
M204.818527,155.351410 
	C204.926941,155.674057 204.457764,155.832108 204.228302,155.924896 
	C190.582352,155.918243 177.165863,155.818802 163.261887,155.649826 
	C169.530792,136.986206 176.287201,118.392097 183.116150,99.426132 
	C183.188690,99.054268 183.557297,99.114220 183.742615,99.090561 
	C190.855331,117.720848 197.782715,136.374802 204.818527,155.351410 
z"/>
<path fill="#2D2F35" opacity="1.000000" stroke="none" 
	d="
M94.971161,155.367401 
	C94.840416,155.771408 94.670341,155.822372 94.248291,155.959503 
	C80.640976,155.967667 67.285629,155.889648 53.463268,155.731049 
	C59.723793,137.183701 66.451340,118.716949 73.316269,99.831947 
	C73.695717,99.585693 73.960144,99.633224 74.436714,99.473114 
	C81.394943,117.931404 88.163383,136.472870 94.971161,155.367401 
z"/>
<path fill="#DEDDDE" opacity="1.000000" stroke="none" 
	d="
M50.252144,155.690964 
	C50.309723,155.556213 50.611332,155.472427 50.952541,155.539795 
	C50.992142,155.690948 50.496174,155.741928 50.252144,155.690964 
z"/>
<path fill="#F5B763" opacity="1.000000" stroke="none" 
	d="
M70.560379,90.264725 
	C72.203415,89.088600 73.746864,87.703323 75.321190,87.667313 
	C76.122375,87.648987 77.717865,90.128029 77.601051,91.348663 
	C77.486267,92.548134 75.658203,93.583664 74.581970,94.691147 
	C73.212509,93.332039 71.843040,91.972931 70.560379,90.264725 
z"/>
<path fill="#F5B763" opacity="1.000000" stroke="none" 
	d="
M184.665192,87.260544 
	C185.686310,89.117966 186.697098,90.877098 186.811035,92.692520 
	C186.847382,93.271439 184.413879,94.637466 183.273132,94.478241 
	C182.159592,94.322823 180.247604,92.083000 180.422729,91.787529 
	C181.432449,90.083992 182.957214,88.685745 184.665192,87.260544 
z"/>
</svg>